<mxfile host="app.diagrams.net" agent="Mozilla/5.0 (Windows NT 10.0; Win64; x64) AppleWebKit/537.36 (KHTML, like Gecko) Chrome/135.0.0.0 Safari/537.36 Edg/135.0.0.0" version="26.2.15">
  <diagram id="spp_inception_enhanced" name="空间金字塔池化Inception模块结构图(增强版)">
    <mxGraphModel dx="1411" dy="784" grid="1" gridSize="10" guides="1" tooltips="1" connect="1" arrows="1" fold="1" page="1" pageScale="1" pageWidth="827" pageHeight="1169" math="0" shadow="0">
      <root>
        <mxCell id="0" />
        <mxCell id="1" parent="0" />
        <mxCell id="title" value="空间金字塔池化(SPP) Inception模块结构图" style="text;html=1;strokeColor=none;fillColor=none;align=center;verticalAlign=middle;whiteSpace=wrap;rounded=0;fontStyle=1;fontSize=18;fontColor=#333333;" parent="1" vertex="1">
          <mxGeometry x="140" y="40" width="520" height="30" as="geometry" />
        </mxCell>
        <mxCell id="subtitle" value="Section I2U-Net中使用自适应池化版本" style="text;html=1;strokeColor=none;fillColor=none;align=center;verticalAlign=middle;whiteSpace=wrap;rounded=0;fontStyle=1;fontSize=14;fontColor=#666666;" parent="1" vertex="1">
          <mxGeometry x="140" y="70" width="520" height="30" as="geometry" />
        </mxCell>
        <mxCell id="input" value="输入特征图&#xa;x (b×c×h×w)" style="rounded=1;whiteSpace=wrap;html=1;fillColor=#dae8fc;strokeColor=#6c8ebf;fontStyle=1;fontSize=14;strokeWidth=3;" parent="1" vertex="1">
          <mxGeometry x="340" y="120" width="120" height="60" as="geometry" />
        </mxCell>
        <mxCell id="split_point" value="" style="ellipse;whiteSpace=wrap;html=1;aspect=fixed;fillColor=#cccccc;strokeColor=#999999;strokeWidth=2;" parent="1" vertex="1">
          <mxGeometry x="385" y="200" width="30" height="30" as="geometry" />
        </mxCell>
        <mxCell id="arrow_to_split" value="" style="endArrow=classic;html=1;rounded=1;exitX=0.5;exitY=1;exitDx=0;exitDy=0;entryX=0.5;entryY=0;entryDx=0;entryDy=0;strokeWidth=3;" parent="1" source="input" target="split_point" edge="1">
          <mxGeometry width="50" height="50" relative="1" as="geometry">
            <mxPoint x="400" y="190" as="sourcePoint" />
            <mxPoint x="450" y="140" as="targetPoint" />
          </mxGeometry>
        </mxCell>
        <mxCell id="pool_branch_title" value="多尺度自适应池化分支" style="text;html=1;strokeColor=#D6B656;fillColor=#FFF2CC;align=center;verticalAlign=middle;whiteSpace=wrap;rounded=1;fontStyle=1;fontSize=14;strokeWidth=2;" parent="1" vertex="1">
          <mxGeometry x="10" y="250" width="180" height="40" as="geometry" />
        </mxCell>
        <mxCell id="pool_adaptive_2x2" value="自适应池化&#xa;2×2" style="rounded=1;whiteSpace=wrap;html=1;fillColor=#fff2cc;strokeColor=#d6b656;fontStyle=1;fontSize=12;strokeWidth=3;" parent="1" vertex="1">
          <mxGeometry x="137" y="320" width="100" height="50" as="geometry" />
        </mxCell>
        <mxCell id="pool_adaptive_3x3" value="自适应池化&#xa;3×3" style="rounded=1;whiteSpace=wrap;html=1;fillColor=#fff2cc;strokeColor=#d6b656;fontStyle=1;fontSize=12;strokeWidth=3;" parent="1" vertex="1">
          <mxGeometry x="137" y="390" width="100" height="50" as="geometry" />
        </mxCell>
        <mxCell id="pool_adaptive_5x5" value="自适应池化&#xa;5×5" style="rounded=1;whiteSpace=wrap;html=1;fillColor=#fff2cc;strokeColor=#d6b656;fontStyle=1;fontSize=12;strokeWidth=3;" parent="1" vertex="1">
          <mxGeometry x="137" y="460" width="100" height="50" as="geometry" />
        </mxCell>
        <mxCell id="pool_adaptive_6x6" value="自适应池化&#xa;6×6" style="rounded=1;whiteSpace=wrap;html=1;fillColor=#fff2cc;strokeColor=#d6b656;fontStyle=1;fontSize=12;strokeWidth=3;" parent="1" vertex="1">
          <mxGeometry x="137" y="530" width="100" height="50" as="geometry" />
        </mxCell>
        <mxCell id="flatten_pool" value="展平 + 拼接&#xa;pool_cat" style="rounded=1;whiteSpace=wrap;html=1;fillColor=#ffe6cc;strokeColor=#d79b00;fontStyle=1;fontSize=12;strokeWidth=3;" parent="1" vertex="1">
          <mxGeometry x="280" y="320" width="100" height="260" as="geometry" />
        </mxCell>
        <mxCell id="conv_branch_title" value="多尺度空洞卷积分支" style="text;html=1;strokeColor=#B85450;fillColor=#F8CECC;align=center;verticalAlign=middle;whiteSpace=wrap;rounded=1;fontStyle=1;fontSize=14;strokeWidth=2;" parent="1" vertex="1">
          <mxGeometry x="580" y="250" width="180" height="30" as="geometry" />
        </mxCell>
        <mxCell id="conv_dilate_1" value="空洞卷积&#xa;d=1, p=1" style="rounded=1;whiteSpace=wrap;html=1;fillColor=#f8cecc;strokeColor=#b85450;fontStyle=1;fontSize=12;strokeWidth=3;" parent="1" vertex="1">
          <mxGeometry x="520" y="300" width="100" height="50" as="geometry" />
        </mxCell>
        <mxCell id="conv_dilate_3" value="空洞卷积&#xa;d=3, p=3" style="rounded=1;whiteSpace=wrap;html=1;fillColor=#f8cecc;strokeColor=#b85450;fontStyle=1;fontSize=12;strokeWidth=3;" parent="1" vertex="1">
          <mxGeometry x="520" y="370" width="100" height="50" as="geometry" />
        </mxCell>
        <mxCell id="conv_dilate_5" value="空洞卷积&#xa;d=5, p=5" style="rounded=1;whiteSpace=wrap;html=1;fillColor=#f8cecc;strokeColor=#b85450;fontStyle=1;fontSize=12;strokeWidth=3;" parent="1" vertex="1">
          <mxGeometry x="520" y="440" width="100" height="50" as="geometry" />
        </mxCell>
        <mxCell id="conv_1x1" value="1x1卷积" style="rounded=1;whiteSpace=wrap;html=1;fillColor=#f8cecc;strokeColor=#b85450;fontStyle=1;fontSize=12;strokeWidth=3;" parent="1" vertex="1">
          <mxGeometry x="660" y="370" width="100" height="50" as="geometry" />
        </mxCell>
        <mxCell id="conv_sum" value="求和 + 展平&#xa;cnn_out" style="rounded=1;whiteSpace=wrap;html=1;fillColor=#ffe6cc;strokeColor=#d79b00;fontStyle=1;fontSize=12;strokeWidth=3;" parent="1" vertex="1">
          <mxGeometry x="520" y="510" width="100" height="50" as="geometry" />
        </mxCell>
        <mxCell id="concat_final" value="特征拼接&#xa;torch.cat" style="rounded=1;whiteSpace=wrap;html=1;fillColor=#e1d5e7;strokeColor=#9673a6;fontStyle=1;fontSize=12;strokeWidth=3;" parent="1" vertex="1">
          <mxGeometry x="330" y="590" width="140" height="50" as="geometry" />
        </mxCell>
        <mxCell id="permute_final" value="维度调整&#xa;permute(0, 2, 1)" style="rounded=1;whiteSpace=wrap;html=1;fillColor=#d5e8d4;strokeColor=#82b366;fontStyle=1;fontSize=12;strokeWidth=3;" parent="1" vertex="1">
          <mxGeometry x="330" y="670" width="140" height="50" as="geometry" />
        </mxCell>
        <mxCell id="output" value="输出特征&#xa;(b×L×c)" style="rounded=1;whiteSpace=wrap;html=1;fillColor=#dae8fc;strokeColor=#6c8ebf;fontStyle=1;fontSize=14;strokeWidth=3;" parent="1" vertex="1">
          <mxGeometry x="340" y="750" width="120" height="60" as="geometry" />
        </mxCell>
        <mxCell id="arrow_split_to_pool" value="" style="edgeStyle=orthogonalEdgeStyle;endArrow=classic;html=1;rounded=1;strokeWidth=3;entryX=0.5;entryY=0;entryDx=0;entryDy=0;" parent="1" source="split_point" target="pool_branch_title" edge="1">
          <mxGeometry width="50" height="50" relative="1" as="geometry">
            <mxPoint x="400" y="240" as="sourcePoint" />
            <mxPoint x="170" y="240" as="targetPoint" />
            <Array as="points">
              <mxPoint x="100" y="215" />
            </Array>
          </mxGeometry>
        </mxCell>
        <mxCell id="arrow_split_to_conv" value="" style="edgeStyle=orthogonalEdgeStyle;endArrow=classic;html=1;rounded=1;strokeWidth=3;entryX=0.5;entryY=0;entryDx=0;entryDy=0;" parent="1" target="conv_branch_title" edge="1">
          <mxGeometry width="50" height="50" relative="1" as="geometry">
            <mxPoint x="400" y="215" as="sourcePoint" />
            <mxPoint x="645" y="240" as="targetPoint" />
            <Array as="points">
              <mxPoint x="400" y="230" />
              <mxPoint x="670" y="230" />
            </Array>
          </mxGeometry>
        </mxCell>
        <mxCell id="arrow_p1_flat" value="" style="endArrow=classic;html=1;rounded=1;exitX=1;exitY=0.5;exitDx=0;exitDy=0;entryX=0;entryY=0.154;entryDx=0;entryDy=0;strokeWidth=2;jumpStyle=arc;jumpSize=6;entryPerimeter=0;" parent="1" source="pool_adaptive_2x2" target="flatten_pool" edge="1">
          <mxGeometry width="50" height="50" relative="1" as="geometry">
            <mxPoint x="237" y="343.98" as="sourcePoint" />
            <mxPoint x="280.4" y="343.66" as="targetPoint" />
          </mxGeometry>
        </mxCell>
        <mxCell id="arrow_conv_in_1" value="" style="endArrow=classic;html=1;rounded=1;exitX=0.5;exitY=1;exitDx=0;exitDy=0;entryX=0.5;entryY=0;entryDx=0;entryDy=0;strokeWidth=2;jumpStyle=arc;jumpSize=6;" parent="1" source="conv_branch_title" target="conv_dilate_1" edge="1">
          <mxGeometry width="50" height="50" relative="1" as="geometry">
            <mxPoint x="630" y="290" as="sourcePoint" />
            <mxPoint x="570" y="325" as="targetPoint" />
            <Array as="points">
              <mxPoint x="670" y="290" />
              <mxPoint x="570" y="290" />
            </Array>
          </mxGeometry>
        </mxCell>
        <mxCell id="arrow_conv_in_2" value="" style="endArrow=classic;html=1;rounded=1;exitX=0.5;exitY=1;exitDx=0;exitDy=0;entryX=0.5;entryY=0;entryDx=0;entryDy=0;strokeWidth=2;jumpStyle=arc;jumpSize=6;" parent="1" source="conv_dilate_1" target="conv_dilate_3" edge="1">
          <mxGeometry width="50" height="50" relative="1" as="geometry">
            <mxPoint x="670" y="290" as="sourcePoint" />
            <mxPoint x="570" y="395" as="targetPoint" />
          </mxGeometry>
        </mxCell>
        <mxCell id="arrow_conv_in_3" value="" style="endArrow=classic;html=1;rounded=1;exitX=0.5;exitY=1;exitDx=0;exitDy=0;entryX=0.5;entryY=0;entryDx=0;entryDy=0;strokeWidth=2;jumpStyle=arc;jumpSize=6;" parent="1" source="conv_dilate_3" target="conv_dilate_5" edge="1">
          <mxGeometry width="50" height="50" relative="1" as="geometry">
            <mxPoint x="670" y="290" as="sourcePoint" />
            <mxPoint x="570" y="465" as="targetPoint" />
          </mxGeometry>
        </mxCell>
        <mxCell id="arrow_d3_c1x1" value="" style="endArrow=classic;html=1;rounded=1;exitX=1;exitY=0.5;exitDx=0;exitDy=0;entryX=0;entryY=0.5;entryDx=0;entryDy=0;strokeWidth=2;jumpStyle=arc;jumpSize=6;" parent="1" source="conv_dilate_3" target="conv_1x1" edge="1">
          <mxGeometry width="50" height="50" relative="1" as="geometry">
            <mxPoint x="630" y="395" as="sourcePoint" />
            <mxPoint x="660" y="395" as="targetPoint" />
          </mxGeometry>
        </mxCell>
        <mxCell id="arrow_d5_c1x1" value="" style="endArrow=classic;html=1;rounded=1;exitX=1;exitY=0.5;exitDx=0;exitDy=0;entryX=0;entryY=0.75;entryDx=0;entryDy=0;strokeWidth=2;jumpStyle=arc;jumpSize=10;" parent="1" source="conv_dilate_5" target="conv_1x1" edge="1">
          <mxGeometry width="50" height="50" relative="1" as="geometry">
            <mxPoint x="630" y="452.5" as="sourcePoint" />
            <mxPoint x="660" y="407.5" as="targetPoint" />
            <Array as="points">
              <mxPoint x="640" y="465" />
              <mxPoint x="640" y="407" />
            </Array>
          </mxGeometry>
        </mxCell>
        <mxCell id="arrow_d1_sum" value="" style="endArrow=classic;html=1;rounded=1;exitX=0;exitY=0.75;exitDx=0;exitDy=0;entryX=0;entryY=0.25;entryDx=0;entryDy=0;strokeWidth=2;jumpStyle=arc;jumpSize=10;" parent="1" source="conv_dilate_1" target="conv_sum" edge="1">
          <mxGeometry width="50" height="50" relative="1" as="geometry">
            <mxPoint x="570" y="360" as="sourcePoint" />
            <mxPoint x="570" y="510" as="targetPoint" />
            <Array as="points">
              <mxPoint x="500" y="338" />
              <mxPoint x="500" y="522" />
            </Array>
          </mxGeometry>
        </mxCell>
        <mxCell id="arrow_d5_sum" value="" style="endArrow=classic;html=1;rounded=1;exitX=0.5;exitY=1;exitDx=0;exitDy=0;entryX=0.5;entryY=0;entryDx=0;entryDy=0;strokeWidth=2;jumpStyle=arc;jumpSize=6;" parent="1" source="conv_dilate_5" target="conv_sum" edge="1">
          <mxGeometry width="50" height="50" relative="1" as="geometry">
            <mxPoint x="570" y="495" as="sourcePoint" />
            <mxPoint x="520" y="535" as="targetPoint" />
          </mxGeometry>
        </mxCell>
        <mxCell id="arrow_concat_permute" value="" style="endArrow=classic;html=1;rounded=1;exitX=0.5;exitY=1;exitDx=0;exitDy=0;entryX=0.5;entryY=0;entryDx=0;entryDy=0;strokeWidth=2;jumpStyle=arc;jumpSize=6;" parent="1" source="concat_final" target="permute_final" edge="1">
          <mxGeometry width="50" height="50" relative="1" as="geometry">
            <mxPoint x="400" y="650" as="sourcePoint" />
            <mxPoint x="400" y="670" as="targetPoint" />
          </mxGeometry>
        </mxCell>
        <mxCell id="arrow_permute_output" value="" style="endArrow=classic;html=1;rounded=1;exitX=0.5;exitY=1;exitDx=0;exitDy=0;entryX=0.5;entryY=0;entryDx=0;entryDy=0;strokeWidth=2;jumpStyle=arc;jumpSize=6;" parent="1" source="permute_final" target="output" edge="1">
          <mxGeometry width="50" height="50" relative="1" as="geometry">
            <mxPoint x="400" y="730" as="sourcePoint" />
            <mxPoint x="400" y="750" as="targetPoint" />
          </mxGeometry>
        </mxCell>
        <mxCell id="function_detail_box" value="SPP Inception模块功能说明" style="swimlane;fontStyle=1;childLayout=stackLayout;horizontal=1;startSize=30;horizontalStack=0;resizeParent=1;resizeParentMax=0;resizeLast=0;collapsible=1;marginBottom=0;fontSize=14;strokeWidth=3;fillColor=#a20025;fontColor=#ffffff;strokeColor=#6F0000;" parent="1" vertex="1">
          <mxGeometry x="140" y="840" width="590" height="150" as="geometry" />
        </mxCell>
        <mxCell id="function1" value="1. 多尺度池化: 使用不同输出尺寸的自适应最大池化捕获不同空间尺度的特征，适应任意输入尺寸。" style="text;strokeColor=none;fillColor=none;align=left;verticalAlign=middle;spacingLeft=4;spacingRight=4;overflow=hidden;points=[[0,0.5],[1,0.5]];portConstraint=eastwest;rotatable=0;fontStyle=1;fontSize=12;fontColor=#000000;" parent="function_detail_box" vertex="1">
          <mxGeometry y="30" width="590" height="30" as="geometry" />
        </mxCell>
        <mxCell id="function2" value="2. 多尺度卷积: 使用不同膨胀率(dilation)的卷积增大感受野，并行提取多尺度上下文信息。" style="text;strokeColor=none;fillColor=none;align=left;verticalAlign=middle;spacingLeft=4;spacingRight=4;overflow=hidden;points=[[0,0.5],[1,0.5]];portConstraint=eastwest;rotatable=0;fontStyle=1;fontSize=12;fontColor=#000000;" parent="function_detail_box" vertex="1">
          <mxGeometry y="60" width="590" height="30" as="geometry" />
        </mxCell>
        <mxCell id="function3" value="3. 特征融合: 将池化分支和卷积分支提取的特征展平后进行拼接(Concatenate)，得到丰富的多尺度特征表示。" style="text;strokeColor=none;fillColor=none;align=left;verticalAlign=middle;spacingLeft=4;spacingRight=4;overflow=hidden;points=[[0,0.5],[1,0.5]];portConstraint=eastwest;rotatable=0;fontStyle=1;fontSize=12;fontColor=#000000;" parent="function_detail_box" vertex="1">
          <mxGeometry y="90" width="590" height="30" as="geometry" />
        </mxCell>
        <mxCell id="function4" value="4. 维度调整: 最后通过Permute操作调整维度顺序，以适应后续模块的输入要求。" style="text;strokeColor=none;fillColor=none;align=left;verticalAlign=middle;spacingLeft=4;spacingRight=4;overflow=hidden;points=[[0,0.5],[1,0.5]];portConstraint=eastwest;rotatable=0;fontStyle=1;fontSize=12;fontColor=#000000;" parent="function_detail_box" vertex="1">
          <mxGeometry y="120" width="590" height="30" as="geometry" />
        </mxCell>
        <!-- 连接到池化层2x2的箭头 -->
        <mxCell id="pool_branch_to_2x2" value="" style="endArrow=classic;html=1;rounded=1;entryX=0;entryY=0.5;entryDx=0;entryDy=0;strokeWidth=2;exitX=0.5;exitY=1;exitDx=0;exitDy=0;" parent="1" source="pool_branch_title" target="pool_adaptive_2x2" edge="1">
          <mxGeometry width="50" height="50" relative="1" as="geometry">
            <mxPoint x="100" y="300" as="sourcePoint" />
            <mxPoint x="137" y="345" as="targetPoint" />
            <Array as="points">
              <mxPoint x="100" y="345" />
            </Array>
          </mxGeometry>
        </mxCell>
        <!-- 连接到池化层3x3的箭头 -->
        <mxCell id="pool_branch_to_3x3" value="" style="endArrow=classic;html=1;rounded=1;entryX=0;entryY=0.5;entryDx=0;entryDy=0;strokeWidth=2;" parent="1" target="pool_adaptive_3x3" edge="1">
          <mxGeometry width="50" height="50" relative="1" as="geometry">
            <mxPoint x="100" y="345" as="sourcePoint" />
            <mxPoint x="137" y="414.58" as="targetPoint" />
            <Array as="points">
              <mxPoint x="100" y="415" />
            </Array>
          </mxGeometry>
        </mxCell>
        <!-- 连接到池化层5x5的箭头 -->
        <mxCell id="pool_branch_to_5x5" value="" style="endArrow=classic;html=1;rounded=1;entryX=0;entryY=0.5;entryDx=0;entryDy=0;strokeWidth=2;" parent="1" target="pool_adaptive_5x5" edge="1">
          <mxGeometry width="50" height="50" relative="1" as="geometry">
            <mxPoint x="100" y="415" as="sourcePoint" />
            <mxPoint x="137" y="484.58" as="targetPoint" />
            <Array as="points">
              <mxPoint x="100" y="485" />
            </Array>
          </mxGeometry>
        </mxCell>
        <!-- 连接到池化层6x6的箭头 -->
        <mxCell id="pool_branch_to_6x6" value="" style="endArrow=classic;html=1;rounded=1;entryX=0;entryY=0.5;entryDx=0;entryDy=0;strokeWidth=2;" parent="1" target="pool_adaptive_6x6" edge="1">
          <mxGeometry width="50" height="50" relative="1" as="geometry">
            <mxPoint x="100" y="485" as="sourcePoint" />
            <mxPoint x="137" y="555" as="targetPoint" />
            <Array as="points">
              <mxPoint x="100" y="555" />
            </Array>
          </mxGeometry>
        </mxCell>
        <!-- 连接池化层3x3到flatten的箭头 -->
        <mxCell id="pool_3x3_to_flatten" value="" style="endArrow=classic;html=1;rounded=1;exitX=1;exitY=0.5;exitDx=0;exitDy=0;entryX=0;entryY=0.346;entryDx=0;entryDy=0;strokeWidth=2;jumpStyle=arc;jumpSize=8;entryPerimeter=0;" parent="1" source="pool_adaptive_3x3" target="flatten_pool" edge="1">
          <mxGeometry width="50" height="50" relative="1" as="geometry">
            <mxPoint x="237" y="415" as="sourcePoint" />
            <mxPoint x="280" y="415" as="targetPoint" />
          </mxGeometry>
        </mxCell>
        <!-- 连接池化层5x5到flatten的箭头 -->
        <mxCell id="pool_5x5_to_flatten" value="" style="endArrow=classic;html=1;rounded=1;exitX=1;exitY=0.5;exitDx=0;exitDy=0;entryX=0;entryY=0.538;entryDx=0;entryDy=0;strokeWidth=2;jumpStyle=arc;jumpSize=8;entryPerimeter=0;" parent="1" source="pool_adaptive_5x5" target="flatten_pool" edge="1">
          <mxGeometry width="50" height="50" relative="1" as="geometry">
            <mxPoint x="237" y="485" as="sourcePoint" />
            <mxPoint x="280" y="485" as="targetPoint" />
          </mxGeometry>
        </mxCell>
        <!-- 连接池化层6x6到flatten的箭头 -->
        <mxCell id="pool_6x6_to_flatten" value="" style="endArrow=classic;html=1;rounded=1;exitX=1;exitY=0.5;exitDx=0;exitDy=0;entryX=0;entryY=0.731;entryDx=0;entryDy=0;strokeWidth=2;jumpStyle=arc;jumpSize=8;entryPerimeter=0;" parent="1" source="pool_adaptive_6x6" target="flatten_pool" edge="1">
          <mxGeometry width="50" height="50" relative="1" as="geometry">
            <mxPoint x="237" y="555" as="sourcePoint" />
            <mxPoint x="280" y="555" as="targetPoint" />
          </mxGeometry>
        </mxCell>
        <!-- 连接1x1卷积到求和的箭头 -->
        <mxCell id="conv_1x1_to_sum" value="" style="endArrow=classic;html=1;rounded=1;exitX=0.5;exitY=1;exitDx=0;exitDy=0;entryX=1;entryY=0.5;entryDx=0;entryDy=0;strokeWidth=2;jumpStyle=arc;jumpSize=8;" parent="1" source="conv_1x1" target="conv_sum" edge="1">
          <mxGeometry width="50" height="50" relative="1" as="geometry">
            <mxPoint x="710" y="430" as="sourcePoint" />
            <mxPoint x="620" y="535" as="targetPoint" />
            <Array as="points">
              <mxPoint x="710" y="535" />
            </Array>
          </mxGeometry>
        </mxCell>
        <!-- 连接flatten_pool到concat_final的箭头 -->
        <mxCell id="flatten_to_concat" value="" style="endArrow=classic;html=1;rounded=1;exitX=0.5;exitY=1;exitDx=0;exitDy=0;entryX=0.25;entryY=0;entryDx=0;entryDy=0;strokeWidth=2;jumpStyle=arc;jumpSize=8;" parent="1" source="flatten_pool" target="concat_final" edge="1">
          <mxGeometry width="50" height="50" relative="1" as="geometry">
            <mxPoint x="330" y="590" as="sourcePoint" />
            <mxPoint x="365" y="590" as="targetPoint" />
          </mxGeometry>
        </mxCell>
        <!-- 连接conv_sum到concat_final的箭头 -->
        <mxCell id="sum_to_concat" value="" style="endArrow=classic;html=1;rounded=1;exitX=0.5;exitY=1;exitDx=0;exitDy=0;entryX=0.75;entryY=0;entryDx=0;entryDy=0;strokeWidth=2;jumpStyle=arc;jumpSize=8;" parent="1" source="conv_sum" target="concat_final" edge="1">
          <mxGeometry width="50" height="50" relative="1" as="geometry">
            <mxPoint x="570" y="565" as="sourcePoint" />
            <mxPoint x="435" y="590" as="targetPoint" />
            <Array as="points">
              <mxPoint x="570" y="565" />
              <mxPoint x="435" y="565" />
            </Array>
          </mxGeometry>
        </mxCell>
      </root>
    </mxGraphModel>
  </diagram>
</mxfile>
